<svg width="37" height="38" viewBox="0 0 37 38" fill="none" xmlns="http://www.w3.org/2000/svg">
<path d="M10.2058 17.1346C12.4258 21.4975 16.0025 25.0742 20.3654 27.2942L23.7571 23.9025C24.1887 23.4708 24.79 23.3475 25.3296 23.5171C27.0562 24.0875 28.9062 24.3958 30.8333 24.3958C31.2422 24.3958 31.6343 24.5583 31.9235 24.8474C32.2126 25.1365 32.375 25.5286 32.375 25.9375V31.3333C32.375 31.7422 32.2126 32.1343 31.9235 32.4235C31.6343 32.7126 31.2422 32.875 30.8333 32.875C23.8825 32.875 17.2163 30.1138 12.3012 25.1988C7.38623 20.2837 4.625 13.6175 4.625 6.66667C4.625 6.25779 4.78743 5.86566 5.07654 5.57654C5.36566 5.28743 5.75779 5.125 6.16667 5.125H11.5625C11.9714 5.125 12.3635 5.28743 12.6526 5.57654C12.9417 5.86566 13.1042 6.25779 13.1042 6.66667C13.1042 8.59375 13.4125 10.4437 13.9829 12.1704C14.1525 12.71 14.0292 13.3112 13.5975 13.7429L10.2058 17.1346Z" fill="#020080"/>
</svg>
